<svg width="150" height="44" viewBox="0 0 150 44" fill="none" xmlns="http://www.w3.org/2000/svg">
<g clip-path="url(#clip0_2_1523)">
<g clip-path="url(#clip1_2_1523)">
<path fill-rule="evenodd" clip-rule="evenodd" d="M18.3353 11.8618L18.3265 42.3433L21.5809 42.3342L21.5719 31.6944L27.3211 31.6853L27.312 42.3342H30.7184V0.985291L27.3029 3.24996L27.2987 28.4702L21.6077 28.4514L21.6122 6.24603L0 18.7476L0.0290845 35.8841L3.44454 35.8934L3.44896 20.6435L18.3353 11.8618Z" fill="#1A1A1A"/>
<path fill-rule="evenodd" clip-rule="evenodd" d="M12.4252 42.1916V19.0356L9.06417 21.0055L9.13512 39.047L0.051491 38.9756L0.0065918 42.1736L12.4252 42.1916Z" fill="#1A1A1A"/>
<path d="M54.2941 25.0464V13.847H57.0439V25.0464C57.0439 26.1088 56.8166 27.0137 56.362 27.761C55.9073 28.5084 55.2877 29.0799 54.5031 29.4755C53.7184 29.8712 52.8275 30.0691 51.8302 30.0691C50.8109 30.0691 49.9053 29.8969 49.1134 29.5525C48.3287 29.2082 47.7128 28.6806 47.2654 27.9698C46.8181 27.2591 46.5945 26.3579 46.5945 25.2662H49.3663C49.3663 25.8963 49.4653 26.4056 49.6633 26.7938C49.8687 27.1749 50.1547 27.4533 50.5213 27.6292C50.8953 27.7977 51.3316 27.8819 51.8302 27.8819C52.3069 27.8819 52.7285 27.7757 53.0952 27.5632C53.4691 27.3434 53.7625 27.0247 53.9751 26.607C54.1878 26.1821 54.2941 25.6619 54.2941 25.0464Z" fill="#1A1A1A"/>
<path d="M67.1195 27.0467V17.9575H69.7813V29.8493H67.2735L67.1195 27.0467ZM67.4934 24.5738L68.3844 24.5518C68.3844 25.3505 68.2964 26.0868 68.1204 26.7609C67.9444 27.4277 67.6731 28.0102 67.3065 28.5084C66.9398 28.9993 66.4705 29.384 65.8985 29.6624C65.3265 29.9335 64.6409 30.0691 63.8416 30.0691C63.2623 30.0691 62.7307 29.9848 62.2467 29.8163C61.7628 29.6477 61.3448 29.3876 60.9928 29.036C60.6481 28.6842 60.3805 28.2263 60.1899 27.6621C59.9991 27.098 59.9038 26.4239 59.9038 25.6399V17.9575H62.5547V25.6619C62.5547 26.0942 62.6061 26.4569 62.7087 26.7499C62.8113 27.0356 62.9507 27.2665 63.1266 27.4423C63.3027 27.6182 63.508 27.7427 63.7426 27.816C63.9773 27.8893 64.2266 27.9259 64.4906 27.9259C65.2459 27.9259 65.8398 27.7793 66.2725 27.4863C66.7125 27.1859 67.0242 26.7829 67.2075 26.2773C67.3981 25.7717 67.4934 25.2039 67.4934 24.5738Z" fill="#1A1A1A"/>
<path d="M79.1746 26.629C79.1746 26.3652 79.1086 26.1271 78.9766 25.9146C78.8446 25.6948 78.5919 25.497 78.2176 25.3211C77.8516 25.1453 77.3086 24.9841 76.5901 24.8375C75.9594 24.6983 75.3804 24.5335 74.8521 24.343C74.3315 24.1451 73.8842 23.907 73.5102 23.6286C73.1362 23.3501 72.8466 23.0204 72.6412 22.6394C72.4359 22.2584 72.3333 21.8189 72.3333 21.3206C72.3333 20.837 72.4396 20.3791 72.6522 19.9468C72.8649 19.5145 73.1692 19.1335 73.5652 18.8038C73.9611 18.474 74.4414 18.2139 75.0061 18.0234C75.5784 17.8329 76.2159 17.7377 76.9201 17.7377C77.9176 17.7377 78.7719 17.9062 79.4829 18.2432C80.2014 18.5729 80.7511 19.0235 81.1329 19.595C81.5139 20.1593 81.7051 20.7967 81.7051 21.5075H79.0539C79.0539 21.1924 78.9729 20.8993 78.8116 20.6282C78.6579 20.3498 78.4231 20.1263 78.1081 19.9577C77.7924 19.7819 77.3964 19.694 76.9201 19.694C76.4656 19.694 76.0876 19.7672 75.7869 19.9138C75.4936 20.053 75.2739 20.2362 75.1269 20.4633C74.9878 20.6905 74.9181 20.9396 74.9181 21.2107C74.9181 21.4085 74.9548 21.588 75.0279 21.7492C75.1089 21.9031 75.2409 22.046 75.4239 22.1779C75.6076 22.3024 75.8566 22.4196 76.1724 22.5296C76.4949 22.6394 76.8984 22.7457 77.3821 22.8482C78.2911 23.0387 79.0719 23.2842 79.7251 23.5847C80.3851 23.8777 80.8906 24.2587 81.2431 24.7277C81.5949 25.1893 81.7711 25.7754 81.7711 26.4861C81.7711 27.0137 81.6571 27.4973 81.4299 27.9369C81.2101 28.3692 80.8869 28.7465 80.4616 29.0689C80.0364 29.384 79.5271 29.6294 78.9331 29.8053C78.3466 29.9811 77.6866 30.0691 76.9531 30.0691C75.8754 30.0691 74.9621 29.8785 74.2142 29.4975C73.4662 29.1092 72.8979 28.6146 72.5092 28.0138C72.1279 27.4057 71.9373 26.7755 71.9373 26.1234H74.5002C74.5295 26.6144 74.6652 27.0064 74.9071 27.2994C75.1561 27.5852 75.4644 27.794 75.8311 27.9259C76.2054 28.0505 76.5901 28.1127 76.9861 28.1127C77.4624 28.1127 77.8621 28.0505 78.1846 27.9259C78.5079 27.794 78.7531 27.6182 78.9219 27.3983C79.0906 27.1712 79.1746 26.9147 79.1746 26.629Z" fill="#1A1A1A"/>
<path d="M89.5469 17.9575V19.8918H82.8374V17.9575H89.5469ZM84.7732 15.045H87.4244V26.5631C87.4244 26.9294 87.4754 27.2115 87.5782 27.4094C87.6884 27.5999 87.8384 27.728 88.0289 27.794C88.2202 27.86 88.4437 27.893 88.7002 27.893C88.8832 27.893 89.0594 27.8819 89.2282 27.86C89.3969 27.838 89.5327 27.816 89.6354 27.794L89.6459 29.8163C89.4262 29.8822 89.1697 29.9408 88.8764 29.9921C88.5899 30.0434 88.2599 30.0691 87.8864 30.0691C87.2774 30.0691 86.7389 29.9628 86.2694 29.7503C85.7999 29.5305 85.4332 29.1752 85.1692 28.6842C84.9052 28.1933 84.7732 27.5412 84.7732 26.7279V15.045Z" fill="#1A1A1A"/>
<path d="M102.439 20.5292V22.7164H93.9359V20.5292H102.439ZM94.6177 13.847V29.8493H91.8569V13.847H94.6177ZM104.561 13.847V29.8493H101.812V13.847H104.561Z" fill="#1A1A1A"/>
<path d="M107.081 24.0353V23.7824C107.081 22.9252 107.205 22.1302 107.454 21.3975C107.704 20.6575 108.063 20.0164 108.533 19.4742C109.009 18.9247 109.589 18.4997 110.27 18.1993C110.96 17.8916 111.737 17.7377 112.602 17.7377C113.474 17.7377 114.252 17.8916 114.934 18.1993C115.623 18.4997 116.207 18.9247 116.683 19.4742C117.16 20.0164 117.523 20.6575 117.772 21.3975C118.021 22.1302 118.146 22.9252 118.146 23.7824V24.0353C118.146 24.8925 118.021 25.6875 117.772 26.4202C117.523 27.1529 117.16 27.794 116.683 28.3436C116.207 28.8857 115.627 29.3107 114.945 29.6184C114.263 29.9189 113.489 30.0691 112.624 30.0691C111.752 30.0691 110.971 29.9189 110.281 29.6184C109.599 29.3107 109.02 28.8857 108.543 28.3436C108.067 27.794 107.704 27.1529 107.454 26.4202C107.205 25.6875 107.081 24.8925 107.081 24.0353ZM109.731 23.7824V24.0353C109.731 24.5701 109.787 25.0757 109.896 25.5519C110.006 26.0282 110.179 26.4458 110.413 26.8049C110.648 27.1639 110.948 27.446 111.315 27.6512C111.682 27.8563 112.118 27.9589 112.624 27.9589C113.115 27.9589 113.54 27.8563 113.9 27.6512C114.266 27.446 114.567 27.1639 114.802 26.8049C115.037 26.4458 115.209 26.0282 115.319 25.5519C115.436 25.0757 115.495 24.5701 115.495 24.0353V23.7824C115.495 23.2549 115.436 22.7567 115.319 22.2878C115.209 21.8115 115.033 21.3902 114.791 21.0239C114.557 20.6575 114.256 20.3717 113.889 20.1666C113.53 19.9541 113.101 19.8479 112.602 19.8479C112.103 19.8479 111.671 19.9541 111.304 20.1666C110.945 20.3717 110.648 20.6575 110.413 21.0239C110.179 21.3902 110.006 21.8115 109.896 22.2878C109.787 22.7567 109.731 23.2549 109.731 23.7824Z" fill="#1A1A1A"/>
<path d="M123.019 20.3754V29.8493H120.367V17.9575H122.864L123.019 20.3754ZM122.59 23.4638L121.687 23.4527C121.687 22.6322 121.79 21.8738 121.996 21.1777C122.2 20.4816 122.501 19.8772 122.897 19.3643C123.293 18.8441 123.784 18.4448 124.371 18.1663C124.965 17.8805 125.651 17.7377 126.428 17.7377C126.971 17.7377 127.465 17.8183 127.913 17.9795C128.368 18.1334 128.76 18.3788 129.09 18.7158C129.427 19.0529 129.684 19.4852 129.86 20.0127C130.043 20.5403 130.135 21.1777 130.135 21.9251V29.8493H127.484V22.1558C127.484 21.5771 127.396 21.1228 127.22 20.793C127.051 20.4633 126.806 20.2289 126.483 20.0897C126.168 19.9431 125.79 19.8698 125.35 19.8698C124.852 19.8698 124.426 19.9651 124.075 20.1556C123.73 20.3461 123.448 20.6062 123.227 20.9359C123.007 21.2657 122.846 21.6467 122.743 22.079C122.641 22.5113 122.59 22.9728 122.59 23.4638ZM129.97 22.7603L128.727 23.0351C128.727 22.3171 128.826 21.6393 129.024 21.0019C129.229 20.3571 129.526 19.7929 129.915 19.3093C130.311 18.8184 130.798 18.4337 131.378 18.1553C131.957 17.8769 132.621 17.7377 133.369 17.7377C133.978 17.7377 134.52 17.822 134.997 17.9905C135.481 18.1517 135.892 18.4081 136.228 18.7598C136.566 19.1115 136.822 19.5695 136.999 20.1336C137.175 20.6905 137.263 21.3646 137.263 22.1558V29.8493H134.601V22.1449C134.601 21.5441 134.512 21.0788 134.337 20.7491C134.168 20.4194 133.926 20.1923 133.611 20.0677C133.295 19.9358 132.918 19.8698 132.478 19.8698C132.067 19.8698 131.704 19.9468 131.389 20.1006C131.081 20.2472 130.821 20.456 130.608 20.7271C130.396 20.9909 130.234 21.2949 130.124 21.6393C130.021 21.9837 129.97 22.3574 129.97 22.7603Z" fill="#1A1A1A"/>
<path d="M145.238 30.0691C144.357 30.0691 143.562 29.9262 142.85 29.6404C142.147 29.3474 141.545 28.9407 141.047 28.4204C140.555 27.9002 140.177 27.2885 139.913 26.585C139.649 25.8817 139.517 25.1233 139.517 24.31V23.8704C139.517 22.9399 139.653 22.0973 139.925 21.3425C140.196 20.5879 140.573 19.9431 141.058 19.4082C141.542 18.866 142.114 18.452 142.774 18.1663C143.433 17.8805 144.149 17.7377 144.918 17.7377C145.769 17.7377 146.513 17.8805 147.152 18.1663C147.789 18.452 148.317 18.855 148.735 19.3753C149.16 19.8881 149.476 20.5 149.681 21.2107C149.894 21.9214 150 22.7054 150 23.5627V24.6947H140.804V22.7933H147.383V22.5845C147.368 22.1082 147.272 21.6613 147.096 21.2437C146.927 20.826 146.667 20.489 146.315 20.2325C145.964 19.9761 145.494 19.8479 144.908 19.8479C144.467 19.8479 144.075 19.9431 143.73 20.1336C143.393 20.3168 143.111 20.5842 142.883 20.9359C142.656 21.2876 142.48 21.7126 142.355 22.2108C142.238 22.7018 142.18 23.2549 142.18 23.8704V24.31C142.18 24.8303 142.249 25.3138 142.388 25.7608C142.535 26.2004 142.748 26.585 143.027 26.9147C143.305 27.2445 143.642 27.5046 144.038 27.6951C144.434 27.8783 144.885 27.9698 145.391 27.9698C146.03 27.9698 146.597 27.8417 147.096 27.5852C147.595 27.3287 148.028 26.966 148.394 26.4971L149.791 27.8489C149.534 28.2227 149.201 28.5817 148.79 28.926C148.379 29.2631 147.877 29.5379 147.284 29.7503C146.696 29.9628 146.015 30.0691 145.238 30.0691Z" fill="#1A1A1A"/>
</g>
</g>
<defs>
<clipPath id="clip0_2_1523">
<rect width="150" height="42.75" fill="white" transform="translate(0 0.309998)"/>
</clipPath>
<clipPath id="clip1_2_1523">
<rect width="150" height="42.75" fill="white" transform="translate(0 0.309998)"/>
</clipPath>
</defs>
</svg>
